# xmcd
#
# Track frame offsets:
#	150
#	16491
#	37459
#	56709
#	76331
#	103612
#	127807
#	147303
#	171427
#	192770
#
# Disc length: 2940 seconds
#
# Revision: 1
# Processed by: cddbd v1.5.2PL0 Copyright (c) Steve Scherf et al.
# Submitted via: EasyCDDAExtractor 12.1.0.1
#
DISCID=8b0b7a0a
DTITLE=Андрей Матвеев - Богу Моему
DYEAR=1900
DGENRE=
TTITLE0=Славлю Тебя
TTITLE1=Богу Моему
TTITLE2=Все побеждает любовь
TTITLE3=Не бойся
TTITLE4=Всходит звезда
TTITLE5=Поклоняясь тебе
TTITLE6=Ты Свят наш Бог
TTITLE7=Жертва хвалы
TTITLE8=Достоин Ты
TTITLE9=Сияй Иисус
EXTD=
EXTT0=
EXTT1=
EXTT2=
EXTT3=
EXTT4=
EXTT5=
EXTT6=
EXTT7=
EXTT8=
EXTT9=
PLAYORDER=
